<svg width="34" height="42" viewBox="0 0 34 42" fill="none" xmlns="http://www.w3.org/2000/svg">
<path d="M21.2494 20.9972V39.3813C21.3344 40.0812 21.1219 40.8278 20.6332 41.3177C20.4367 41.534 20.2032 41.7056 19.9462 41.8227C19.6891 41.9397 19.4136 42 19.1353 42C18.8571 42 18.5815 41.9397 18.3245 41.8227C18.0675 41.7056 17.834 41.534 17.6374 41.3177L13.3668 36.6284C13.135 36.3796 12.9588 36.0754 12.8519 35.7395C12.745 35.4036 12.7104 35.045 12.7506 34.692V20.9972H12.6868L0.448542 3.77949C0.103507 3.29312 -0.0521797 2.67657 0.0155009 2.06456C0.0831816 1.45254 0.368727 0.89482 0.809742 0.513264C1.21344 0.186641 1.65962 0 2.12706 0H31.8729C32.3404 0 32.7866 0.186641 33.1903 0.513264C33.6313 0.89482 33.9168 1.45254 33.9845 2.06456C34.0522 2.67657 33.8965 3.29312 33.5515 3.77949L21.3132 20.9972H21.2494Z" fill="#EBC0DA"/>
</svg>
