<svg width="42" height="42" viewBox="0 0 42 42" fill="none" xmlns="http://www.w3.org/2000/svg">
<path d="M21 21C18.1125 21 15.6406 19.9719 13.5844 17.9156C11.5281 15.8594 10.5 13.3875 10.5 10.5C10.5 7.6125 11.5281 5.14063 13.5844 3.08438C15.6406 1.02813 18.1125 0 21 0C23.8875 0 26.3594 1.02813 28.4156 3.08438C30.4719 5.14063 31.5 7.6125 31.5 10.5C31.5 13.3875 30.4719 15.8594 28.4156 17.9156C26.3594 19.9719 23.8875 21 21 21ZM0 42V34.65C0 33.1625 0.383251 31.7957 1.14975 30.5497C1.91625 29.3037 2.933 28.3518 4.2 27.6938C6.9125 26.3375 9.66875 25.3207 12.4687 24.6435C15.2687 23.9662 18.1125 23.6268 21 23.625C23.8875 23.625 26.7312 23.9645 29.5312 24.6435C32.3312 25.3225 35.0875 26.3393 37.8 27.6938C39.0687 28.35 40.0864 29.302 40.8529 30.5497C41.6194 31.7975 42.0017 33.1643 42 34.65V42H0Z" fill="#D9C9D4"/>
</svg>
